<svg width="146" height="32" viewBox="0 0 146 32" fill="none" xmlns="http://www.w3.org/2000/svg">
<g id="clunify logo">
<path id="Vector" d="M30.592 24.0441C30.592 27.9494 27.4793 31.1159 23.6387 31.1159H6.95274C3.1127 31.1159 0 27.9494 0 24.0441V7.07166C0 3.16622 3.1127 0 6.95274 0H23.6387C27.4793 0 30.592 3.16622 30.592 7.07166V24.0441Z" fill="#ED1C24"/>
<path id="Vector_2" d="M19.2007 15.4278C19.2007 17.5109 17.5127 19.1992 15.4295 19.1992C13.3474 19.1992 11.6578 17.5109 11.6578 15.4278C11.6578 13.3443 13.3474 11.6555 15.4295 11.6555C17.5127 11.6555 19.2007 13.3443 19.2007 15.4278Z" fill="white"/>
<path id="Vector_3" d="M16.4191 1.7023C15.9934 1.40776 15.4542 1.0004 14.4968 1.75527C10.4596 4.94214 2.12085 8.50008 2.12085 8.50008C3.96193 22.8413 13.6587 29.2454 14.448 29.6785C15.5727 30.2945 16.5534 29.6176 16.5534 29.6176C28.6657 21.4648 28.6994 8.50008 28.6994 8.50008C23.1065 6.71833 16.481 1.74547 16.4191 1.7023ZM15.7575 27.0468C15.7575 27.0468 15.3607 27.2038 15.0503 26.965C14.6784 26.6775 6.71177 20.6082 5.35989 10.0758C5.35989 10.0758 11.8208 6.85129 14.9348 4.90532C15.523 4.53609 15.8852 4.88493 15.8852 4.88493C15.8852 4.88493 22.2367 8.92731 25.2232 10.0821C25.2232 10.0821 25.7816 19.077 15.7575 27.0468Z" fill="white"/>
<path id="Vector_4" d="M16.5017 26.4C16.5017 26.9835 16.029 27.456 15.446 27.456C14.8635 27.456 14.3907 26.9835 14.3907 26.4V16.431C14.3907 15.8479 14.8635 15.376 15.446 15.376C16.029 15.376 16.5017 15.8479 16.5017 16.431V26.4Z" fill="white"/>
<path id="Vector_5" d="M15.438 8.78564C11.7683 8.78564 8.79358 11.7588 8.79358 15.4279C8.79358 19.0958 11.768 22.0706 15.438 22.0706C19.1064 22.0706 22.0783 19.0958 22.0783 15.4279C22.0783 11.7585 19.1061 8.78564 15.438 8.78564ZM15.438 20.8847C12.4225 20.8847 9.97938 18.4414 9.97938 15.4278C9.97938 12.4148 12.4228 9.96933 15.438 9.96933C18.4524 9.96933 20.8953 12.4148 20.8953 15.4278C20.895 18.4417 18.4524 20.8847 15.438 20.8847Z" fill="white"/>
<path id="Vector_6" d="M51.9978 20.4567C52.1027 20.4567 52.2078 20.4764 52.3128 20.5156C52.4173 20.555 52.5175 20.6225 52.6138 20.719L54.3696 22.567C53.6016 23.5713 52.6377 24.3291 51.4805 24.8403C50.3228 25.3512 48.9535 25.6068 47.3725 25.6068C45.9218 25.6068 44.6229 25.3597 43.4739 24.8665C42.3254 24.3731 41.3513 23.6915 40.5522 22.822C39.7527 21.953 39.1388 20.9222 38.711 19.7297C38.2828 18.5374 38.0691 17.2421 38.0691 15.8444C38.0691 14.4208 38.3133 13.1123 38.8027 11.9201C39.2921 10.7277 39.9756 9.69897 40.8533 8.83418C41.7311 7.9694 42.7818 7.29663 44.0047 6.81617C45.2281 6.33596 46.5773 6.09546 48.0537 6.09546C48.7702 6.09546 49.4448 6.15904 50.0786 6.28564C50.7118 6.41224 51.3036 6.58705 51.8535 6.80981C52.4044 7.03255 52.9108 7.29928 53.3738 7.60918C53.8368 7.9196 54.2476 8.2626 54.6054 8.63818L53.1118 10.6427C53.0151 10.7653 52.9023 10.8766 52.771 10.9767C52.6396 11.0776 52.4563 11.1274 52.2205 11.1274C52.0633 11.1274 51.9149 11.0927 51.7751 11.0225C51.6355 10.9526 51.4864 10.8676 51.3295 10.7672C51.1723 10.6668 50.9996 10.5574 50.8118 10.4395C50.624 10.3214 50.401 10.2125 50.1435 10.1122C49.886 10.0118 49.5844 9.92649 49.2393 9.85656C48.8941 9.78664 48.4901 9.75168 48.0272 9.75168C47.2239 9.75168 46.4896 9.89365 45.8259 10.1773C45.1616 10.4613 44.5921 10.8673 44.1162 11.3962C43.6397 11.9246 43.2688 12.5643 43.0024 13.3157C42.7355 14.0672 42.6025 14.91 42.6025 15.8447C42.6025 16.823 42.7355 17.6923 43.0024 18.4526C43.2688 19.2124 43.631 19.8526 44.0895 20.3721C44.5488 20.8919 45.0838 21.2873 45.6947 21.5581C46.3064 21.8288 46.9617 21.9642 47.6607 21.9642C48.0626 21.9642 48.4293 21.9446 48.7609 21.905C49.093 21.8659 49.4008 21.7986 49.6853 21.7022C49.9687 21.6061 50.2399 21.4816 50.4974 21.3284C50.755 21.1759 51.0152 20.986 51.2768 20.7585C51.3817 20.6716 51.4951 20.5993 51.6177 20.5427C51.7401 20.4852 51.8675 20.4567 51.9978 20.4567Z" fill="#094FA3"/>
<path id="Vector_7" d="M60.8168 21.8587H67.8933V25.3968H56.3879V6.30493H60.8168V21.8587Z" fill="#094FA3"/>
<path id="Vector_8" d="M77.9275 21.8984C78.5213 21.8984 79.0527 21.8001 79.5194 21.6039C79.9871 21.4074 80.3828 21.1252 80.7058 20.7584C81.0291 20.3916 81.2756 19.9442 81.4465 19.4158C81.6168 18.8871 81.7016 18.2867 81.7016 17.6139V6.30493H86.1304V17.6136C86.1304 18.7844 85.9411 19.8586 85.561 20.8371C85.1811 21.8155 84.6372 22.6583 83.9299 23.3657C83.2222 24.0737 82.3613 24.6238 81.3485 25.0172C80.3346 25.41 79.1949 25.6068 77.928 25.6068C76.653 25.6068 75.5085 25.4103 74.4956 25.0172C73.4818 24.6238 72.6215 24.0735 71.9137 23.3657C71.206 22.6583 70.6638 21.8155 70.2888 20.8371C69.9131 19.8586 69.7255 18.7844 69.7255 17.6136V6.30493H74.1543V17.6004C74.1543 18.2729 74.2395 18.8737 74.4104 19.4021C74.5807 19.9309 74.8272 20.3804 75.1502 20.7518C75.4735 21.1231 75.8688 21.4074 76.3365 21.6039C76.8029 21.8001 77.3337 21.8984 77.9275 21.8984Z" fill="#094FA3"/>
<path id="Vector_9" d="M91.8313 6.33114C91.9622 6.34889 92.0801 6.38147 92.1858 6.42941C92.2903 6.47761 92.39 6.54542 92.4864 6.63283C92.583 6.71997 92.6916 6.83784 92.8143 6.98643L101.882 18.4522C101.846 18.0851 101.82 17.7294 101.804 17.384C101.786 17.039 101.777 16.7142 101.777 16.4079V6.30493H105.681V25.397H103.375C103.035 25.397 102.747 25.3445 102.511 25.2397C102.274 25.1348 102.047 24.943 101.829 24.6631L92.8276 13.2892C92.8535 13.6213 92.8747 13.9466 92.8926 14.2654C92.9096 14.5846 92.9191 14.8837 92.9191 15.1633V25.3972H89.0139V6.30493H91.3466C91.5387 6.30493 91.7005 6.31393 91.8313 6.33114Z" fill="#094FA3"/>
<path id="Vector_10" d="M113.019 11.8085V25.3972H108.956V11.8085H113.019ZM113.019 6.28394V10.0448H108.956V6.28394H113.019Z" fill="#094FA3"/>
<path id="Vector_11" d="M128.855 6.30493L130.711 9.71217H120.753V14.547H127.279V17.9672H120.753V25.3969H116.298V6.30493H128.855Z" fill="#094FA3"/>
<path id="Vector_12" d="M139.347 18.1378V25.3969H134.918V18.1378L128.794 6.30493H131.904C132.288 6.30493 132.593 6.39499 132.821 6.57376C133.048 6.75334 133.232 6.98245 133.372 7.26189L136.07 12.8177C136.289 13.2635 136.49 13.674 136.673 14.0496C136.857 14.4252 137.018 14.7962 137.158 15.1633C137.289 14.7878 137.446 14.4122 137.629 14.0364C137.813 13.6608 138.01 13.2547 138.219 12.8175L140.893 7.26162C140.944 7.14799 141.018 7.03463 141.109 6.921C141.2 6.80737 141.305 6.70487 141.423 6.61297C141.541 6.52133 141.676 6.44689 141.829 6.39021C141.982 6.33352 142.15 6.30493 142.334 6.30493H145.471L139.347 18.1378Z" fill="#094FA3"/>
</g>
</svg>
