<svg width="10" height="10" viewBox="0 0 10 10" fill="none" xmlns="http://www.w3.org/2000/svg">
<g id="instagram">
<path id="Vector" d="M5.20235 0C3.89934 0 3.73595 0.00552931 3.2242 0.0288753C2.71354 0.0521784 2.36477 0.133318 2.05959 0.251934C1.74409 0.374579 1.47653 0.538687 1.20981 0.80548C0.943077 1.07227 0.779015 1.33994 0.656419 1.65552C0.537807 1.96078 0.456719 2.30964 0.433394 2.82045C0.410055 3.33233 0.404541 3.49577 0.404541 4.79914C0.404541 6.10249 0.410055 6.26593 0.433394 6.77781C0.456719 7.28862 0.537807 7.63748 0.656419 7.94274C0.77903 8.25832 0.943092 8.52596 1.20981 8.79278C1.47654 9.05957 1.74409 9.22368 2.05959 9.34633C2.36477 9.46494 2.71354 9.54607 3.2242 9.56939C3.73595 9.59273 3.89934 9.59826 5.20235 9.59826C6.50533 9.59826 6.66872 9.59273 7.18046 9.56939C7.69113 9.54608 8.03989 9.46494 8.34506 9.34633C8.66056 9.22368 8.92812 9.05957 9.19487 8.79278C9.46159 8.52596 9.62565 8.25832 9.74826 7.94274C9.86685 7.63748 9.94796 7.28862 9.97126 6.77781C9.9946 6.26593 10.0001 6.10249 10.0001 4.79914C10.0001 3.49577 9.9946 3.33233 9.97126 2.82045C9.94796 2.30964 9.86685 1.96078 9.74826 1.65552C9.62565 1.33994 9.46159 1.07227 9.19487 0.80548C8.92812 0.538687 8.66056 0.374579 8.34506 0.251934C8.03989 0.133318 7.69113 0.0521784 7.18046 0.0288753C6.66872 0.00552931 6.50533 0 5.20235 0ZM5.20235 0.864702C6.48339 0.864702 6.63514 0.869603 7.14105 0.892691C7.60884 0.914023 7.86288 0.992205 8.03192 1.05793C8.25589 1.145 8.41571 1.24898 8.58359 1.41692C8.75149 1.58486 8.85545 1.74473 8.94249 1.96874C9.0082 2.13784 9.08636 2.39196 9.10768 2.85987C9.13076 3.36592 9.13566 3.51772 9.13566 4.79913C9.13566 6.08055 9.13076 6.23234 9.10768 6.73839C9.08636 7.20631 9.0082 7.46042 8.94249 7.62951C8.85545 7.85354 8.75149 8.0134 8.58359 8.18133C8.41571 8.34928 8.25588 8.45326 8.03194 8.54033C7.86288 8.60606 7.60883 8.68424 7.14105 8.70557C6.63523 8.72866 6.48349 8.73356 5.20233 8.73356C3.92118 8.73356 3.76947 8.72866 3.26361 8.70555C2.79582 8.68424 2.54179 8.60606 2.37274 8.54033C2.14877 8.45326 1.98895 8.34928 1.82108 8.18133C1.65319 8.0134 1.54922 7.85353 1.46217 7.62952C1.39647 7.46042 1.31832 7.2063 1.29698 6.73839C1.2739 6.23234 1.269 6.08055 1.269 4.79913C1.269 3.51772 1.2739 3.36592 1.29698 2.85987C1.31832 2.39195 1.39647 2.13784 1.46217 1.96875C1.54922 1.74472 1.65319 1.58486 1.82106 1.41693C1.98895 1.24898 2.14879 1.145 2.37273 1.05793C2.54179 0.992205 2.79584 0.914023 3.26361 0.892691C3.76953 0.869603 3.92128 0.864702 5.20233 0.864702" fill="white"/>
<path id="Vector_2" d="M5.20239 6.39891C4.31912 6.39891 3.60311 5.6827 3.60311 4.79921C3.60311 3.91569 4.31912 3.19948 5.20239 3.19948C6.08564 3.19948 6.80165 3.91569 6.80165 4.79921C6.80165 5.6827 6.08564 6.39891 5.20239 6.39891ZM5.20239 2.33478C3.84169 2.33478 2.73865 3.43812 2.73865 4.79921C2.73865 6.16026 3.84169 7.26361 5.20239 7.26361C6.56307 7.26361 7.66611 6.16026 7.66611 4.79921C7.66611 3.43812 6.56307 2.33478 5.20239 2.33478ZM8.3392 2.2374C8.3392 2.55548 8.08142 2.8133 7.76345 2.8133C7.4455 2.8133 7.18772 2.55548 7.18772 2.2374C7.18772 1.91935 7.4455 1.6615 7.76345 1.6615C8.08142 1.6615 8.3392 1.91935 8.3392 2.2374Z" fill="white"/>
</g>
</svg>
