<svg width="16" height="16" viewBox="0 0 16 16" fill="none" xmlns="http://www.w3.org/2000/svg">
<g id="Group 5451">
<circle id="Ellipse 492" cx="8" cy="8" r="8" fill="white"/>
<path id="Vector" d="M8.00005 3.32666C6.73119 3.32666 6.57209 3.33204 6.07376 3.35478C5.57648 3.37747 5.23685 3.45648 4.93967 3.57199C4.63244 3.69142 4.37189 3.85123 4.11217 4.11103C3.85242 4.37083 3.69266 4.63148 3.57328 4.93879C3.45778 5.23604 3.37881 5.57576 3.3561 6.07318C3.33337 6.57165 3.328 6.7308 3.328 8.00001C3.328 9.2692 3.33337 9.42835 3.3561 9.92682C3.37881 10.4242 3.45778 10.764 3.57328 11.0612C3.69268 11.3685 3.85244 11.6291 4.11217 11.889C4.37191 12.1488 4.63244 12.3086 4.93967 12.428C5.23685 12.5435 5.57648 12.6225 6.07376 12.6452C6.57209 12.668 6.73119 12.6733 8.00005 12.6733C9.26888 12.6733 9.42799 12.668 9.92632 12.6452C10.4236 12.6225 10.7632 12.5435 11.0604 12.428C11.3676 12.3086 11.6282 12.1488 11.8879 11.889C12.1477 11.6291 12.3074 11.3685 12.4268 11.0612C12.5423 10.764 12.6213 10.4242 12.644 9.92682C12.6667 9.42835 12.6721 9.2692 12.6721 8.00001C12.6721 6.7308 12.6667 6.57165 12.644 6.07318C12.6213 5.57576 12.5423 5.23604 12.4268 4.93879C12.3074 4.63148 12.1477 4.37083 11.8879 4.11103C11.6282 3.85123 11.3676 3.69142 11.0604 3.57199C10.7632 3.45648 10.4236 3.37747 9.92632 3.35478C9.42799 3.33204 9.26888 3.32666 8.00005 3.32666ZM8.00005 4.1687C9.24752 4.1687 9.39529 4.17347 9.88794 4.19595C10.3435 4.21673 10.5908 4.29286 10.7555 4.35686C10.9736 4.44164 11.1292 4.5429 11.2927 4.70644C11.4562 4.86997 11.5574 5.02566 11.6422 5.24379C11.7061 5.40847 11.7823 5.65593 11.803 6.11157C11.8255 6.60436 11.8303 6.75217 11.8303 8C11.8303 9.24783 11.8255 9.39564 11.803 9.88843C11.7823 10.3441 11.7061 10.5915 11.6422 10.7562C11.5574 10.9743 11.4562 11.13 11.2927 11.2935C11.1292 11.4571 10.9735 11.5584 10.7555 11.6431C10.5908 11.7071 10.3435 11.7833 9.88794 11.804C9.39537 11.8265 9.24762 11.8313 8.00004 11.8313C6.75246 11.8313 6.60473 11.8265 6.11214 11.804C5.65661 11.7833 5.40923 11.7071 5.24462 11.6431C5.02652 11.5584 4.87089 11.4571 4.70741 11.2935C4.54392 11.13 4.44268 10.9743 4.35791 10.7562C4.29393 10.5915 4.21783 10.3441 4.19705 9.88843C4.17458 9.39564 4.1698 9.24783 4.1698 8C4.1698 6.75217 4.17458 6.60436 4.19705 6.11157C4.21783 5.65591 4.29393 5.40847 4.35791 5.24381C4.44268 5.02565 4.54392 4.86997 4.7074 4.70645C4.87089 4.5429 5.02653 4.44164 5.2446 4.35686C5.40923 4.29286 5.65662 4.21673 6.11214 4.19595C6.60479 4.17347 6.75256 4.1687 8.00004 4.1687" fill="#0E76BC"/>
<path id="Vector_2" d="M8 9.55806C7.13988 9.55806 6.44263 8.86062 6.44263 8.00029C6.44263 7.13993 7.13988 6.44249 8 6.44249C8.86009 6.44249 9.55733 7.13993 9.55733 8.00029C9.55733 8.86062 8.86009 9.55806 8 9.55806ZM8 5.60045C6.67496 5.60045 5.60083 6.67488 5.60083 8.00029C5.60083 9.32567 6.67496 10.4001 8 10.4001C9.32501 10.4001 10.3991 9.32567 10.3991 8.00029C10.3991 6.67488 9.32501 5.60045 8 5.60045ZM11.0546 5.50563C11.0546 5.81537 10.8036 6.06643 10.4939 6.06643C10.1843 6.06643 9.93329 5.81537 9.93329 5.50563C9.93329 5.19591 10.1843 4.94482 10.4939 4.94482C10.8036 4.94482 11.0546 5.19591 11.0546 5.50563Z" fill="#0E76BC"/>
</g>
</svg>
