<svg width="16" height="16" viewBox="0 0 16 16" fill="none" xmlns="http://www.w3.org/2000/svg">
<g id="Group 5449">
<circle id="Ellipse 494" cx="8" cy="8" r="8" fill="white"/>
<path id="Vector" fill-rule="evenodd" clip-rule="evenodd" d="M6.57171 5.76925H8.54767V6.75104L8.57623 6.7511C8.85142 6.27261 9.52429 5.76931 10.5276 5.76931C12.6141 5.76925 13 7.02777 13 8.66493V11.9999L10.9393 12V9.04364C10.9393 8.33889 10.9242 7.43168 9.86785 7.43168C8.7949 7.43168 8.6305 8.19883 8.6305 8.99231V12H6.57171V5.76931V5.76925ZM5.14314 4.03852C5.14314 4.61181 4.66314 5.07701 4.07166 5.07701C3.48018 5.07701 3 4.61178 3 4.03852C3 3.46523 3.48018 3 4.07166 3C4.66314 3 5.14314 3.46523 5.14314 4.03852ZM3 5.76925H5.14314V11.9999H3V5.76925Z" fill="#0E76BC"/>
</g>
</svg>
