<svg width="10" height="9" viewBox="0 0 10 9" fill="none" xmlns="http://www.w3.org/2000/svg">
<path id="Vector" fill-rule="evenodd" clip-rule="evenodd" d="M3.57171 2.76925H5.54767V3.75104L5.57623 3.7511C5.85142 3.27261 6.52429 2.76931 7.52761 2.76931C9.61411 2.76925 10 4.02777 10 5.66493V8.99991L7.93933 8.99997V6.04364C7.93933 5.33889 7.92421 4.43168 6.86785 4.43168C5.7949 4.43168 5.6305 5.19883 5.6305 5.99231V9H3.57171V2.76931V2.76925ZM2.14314 1.03852C2.14314 1.61181 1.66314 2.07701 1.07166 2.07701C0.48018 2.07701 0 1.61178 0 1.03852C0 0.465235 0.48018 0 1.07166 0C1.66314 0 2.14314 0.465235 2.14314 1.03852ZM0 2.76925H2.14314V8.99994H0V2.76925Z" fill="white"/>
</svg>
