<svg width="17" height="22" viewBox="0 0 17 22" fill="none" xmlns="http://www.w3.org/2000/svg">
<g id="Group">
<path id="Vector" fill-rule="evenodd" clip-rule="evenodd" d="M12.626 19.0278C11.5968 20.1242 10.3972 21.108 9.04864 21.9033C8.88302 22.0205 8.65826 22.0366 8.47371 21.9217C6.48395 20.6919 4.81122 19.2139 3.49812 17.6095C1.6858 15.4006 0.543042 12.9503 0.15266 10.592C-0.24482 8.1992 0.126634 5.89833 1.3522 4.02729C1.83485 3.28715 2.45237 2.61367 3.20474 2.03213C4.93425 0.692068 6.90982 -0.0135931 8.87593 0.000198354C10.7711 0.0139898 12.6402 0.701262 14.2561 2.13327C14.8239 2.63436 15.3019 3.209 15.6922 3.83191C17.0101 5.9397 17.294 8.62903 16.7143 11.3551C16.1441 14.0468 14.7246 16.7844 12.626 19.0209V19.0278ZM8.50211 4.25485C10.8397 4.25485 12.7324 6.09601 12.7324 8.3624C12.7324 10.6334 10.8373 12.4722 8.50211 12.4722C6.16455 12.4722 4.27415 10.6334 4.27415 8.3624C4.26942 6.09371 6.16455 4.25485 8.50211 4.25485Z" fill="white"/>
</g>
</svg>
