<svg width="10" height="10" viewBox="0 0 10 10" fill="none" xmlns="http://www.w3.org/2000/svg">
<g id="Group">
<path id="Vector" d="M2.66161 4.27245C2.98645 4.8584 3.36083 5.42076 3.84689 5.93356C4.33453 6.44952 4.94093 6.91907 5.72588 7.32019C5.78408 7.3485 5.83913 7.3485 5.88868 7.32884C5.9634 7.30053 6.0397 7.23839 6.11441 7.16367C6.17262 7.10547 6.24498 7.01266 6.32048 6.9112C6.6225 6.51401 6.9961 6.02087 7.52385 6.26783C7.53565 6.27334 7.5443 6.27963 7.5561 6.28435L9.31631 7.29659C9.32182 7.29974 9.32811 7.30525 9.33283 7.30839C9.56485 7.46805 9.66081 7.71423 9.66317 7.99345C9.66317 8.27738 9.55856 8.5967 9.40519 8.86648C9.20227 9.22277 8.90339 9.45872 8.5589 9.61445C8.23092 9.76546 7.86598 9.84647 7.5152 9.89838C6.96464 9.97939 6.44868 9.92748 5.92093 9.76546C5.40498 9.6058 4.88509 9.34232 4.31723 8.99153L4.27554 8.96479C4.01521 8.80198 3.73363 8.62816 3.45757 8.42288C2.44768 7.65996 1.41814 6.55806 0.747238 5.34525C0.18488 4.3275 -0.121861 3.22874 0.0456671 2.18189C0.138476 1.60773 0.384655 1.08549 0.814092 0.740995C1.18847 0.438974 1.69263 0.273805 2.34544 0.332008C2.42015 0.337513 2.48701 0.380771 2.5224 0.445266L3.65105 2.35335C3.81622 2.56728 3.83667 2.77964 3.74622 2.992C3.6715 3.16582 3.52049 3.32627 3.31442 3.47571C3.25386 3.52762 3.1815 3.58031 3.10521 3.63537C2.85274 3.81863 2.56566 4.0302 2.66397 4.27874L2.66161 4.27245Z" fill="white"/>
</g>
</svg>
