<svg width="20" height="20" viewBox="0 0 20 20" fill="none" xmlns="http://www.w3.org/2000/svg">
<g id="Group 5410">
<path id="Vector" d="M5.50878 8.21995C6.18109 9.4387 6.95595 10.6084 7.96197 11.675C8.97124 12.7481 10.2263 13.7248 11.8509 14.5591C11.9714 14.618 12.0853 14.618 12.1879 14.5771C12.3425 14.5182 12.5004 14.389 12.6551 14.2335C12.7756 14.1125 12.9253 13.9194 13.0816 13.7084C13.7067 12.8823 14.4799 11.8566 15.5722 12.3702C15.5966 12.3817 15.6145 12.3948 15.639 12.4046L19.2821 14.51C19.2935 14.5166 19.3065 14.528 19.3163 14.5345C19.7965 14.8666 19.9951 15.3787 20 15.9594C20 16.55 19.7835 17.2142 19.4661 17.7753C19.0461 18.5163 18.4275 19.0071 17.7145 19.331C17.0357 19.6451 16.2803 19.8136 15.5543 19.9216C14.4148 20.0901 13.3469 19.9821 12.2546 19.6451C11.1868 19.313 10.1107 18.765 8.93543 18.0354L8.84915 17.9798C8.31033 17.6411 7.72756 17.2796 7.15618 16.8526C5.066 15.2658 2.93513 12.9739 1.54657 10.4513C0.382649 8.33447 -0.252216 6.04911 0.0945179 3.87172C0.286605 2.67751 0.796126 1.59127 1.68494 0.874742C2.4598 0.246554 3.50326 -0.0969859 4.85438 0.0240711C5.00903 0.0355224 5.1474 0.125497 5.22065 0.259641L7.55663 4.22835C7.89848 4.67331 7.94081 5.11501 7.7536 5.5567C7.59896 5.91824 7.28641 6.25196 6.85991 6.56278C6.73456 6.67075 6.5848 6.78036 6.4269 6.89487C5.90435 7.27604 5.31018 7.7161 5.51367 8.23304L5.50878 8.21995Z" fill="white"/>
</g>
</svg>
