<svg width="112" height="34" viewBox="0 0 112 34" fill="none" xmlns="http://www.w3.org/2000/svg">
<g id="Group 5513">
<g id="Clip path group">
<mask id="mask0_738_21" style="mask-type:luminance" maskUnits="userSpaceOnUse" x="0" y="0" width="112" height="34">
<g id="clip0_3_59">
<path id="Vector" d="M111.926 0H0V33.5855H111.926V0Z" fill="white"/>
</g>
</mask>
<g mask="url(#mask0_738_21)">
<g id="Group">
<path id="Vector_2" d="M2.87537 22.1823L4.07175 19.1133L3.42154 16.2495L2.46501 15.4635L0 5.13525V27.8781C0.806259 25.5258 1.9593 22.3557 1.9593 22.3557L2.87826 22.1852" fill="#2D327E"/>
<path id="Vector_3" d="M0 0V2.3841C0.465261 2.23961 0.523056 2.77134 0.523056 2.77134L5.65248 17.9602L5.91546 18.7376L6.39806 18.911L6.89222 19.0901L7.14363 19.1826L7.93544 18.7723L7.99902 18.7376L18.3677 22.3556C18.3677 22.3556 18.0614 23.3122 17.1742 23.1735C16.4142 23.055 8.30534 21.3298 6.02816 20.8443C5.65538 20.7662 5.43864 20.72 5.43864 20.72L4.66417 22.3325L0 32.0163V32.2128H32.2128V0H0Z" fill="#2D327E"/>
<path id="Vector_4" d="M5.43575 20.717C5.43575 20.717 5.65248 20.7633 6.02527 20.8413C8.30245 21.3297 16.4084 23.0549 17.1713 23.1705C18.0585 23.3063 18.3648 22.3527 18.3648 22.3527L7.99613 18.7346L7.93255 18.7693L7.14074 19.1796L6.88933 19.0872L6.39517 18.908L5.91257 18.7346L5.64959 17.9573L0.523056 2.77126C0.523056 2.77126 0.465261 2.23953 0 2.38402V5.13224L2.4679 15.4633L3.42443 16.2494L4.07464 19.1132L2.87826 22.1822L1.9593 22.3527C1.9593 22.3527 0.806259 25.5257 0 27.8751V32.0133L4.66128 22.3267L5.43575 20.7141" fill="white"/>
<path id="Vector_5" d="M8.81421 16.4458C9.05695 16.547 9.37194 16.6713 9.73028 16.8157L7.93281 18.7721L7.141 19.1825L6.88959 19.09L8.81421 16.4458ZM13.7963 14.4027L12.9438 14.4721L12.2271 13.9259C12.2271 13.9259 12.0566 3.24805 11.8861 3.24805C11.7156 3.24805 11.7156 3.6584 11.7156 3.6584L11.3052 11.2644L11.782 11.6748L11.5769 13.8219L10.1753 15.5269L9.52799 15.4575L9.34015 15.7176L9.86899 15.969L10.6203 15.7985L10.6435 15.8101L11.8485 14.4981C11.8485 14.4981 17.7842 17.7752 18.2957 18.015C18.8072 18.2549 18.8072 18.0815 18.8072 18.0815L13.7963 14.397V14.4027Z" fill="#514C94"/>
<path id="Vector_6" d="M4.66144 22.3296L6.02543 20.8413C5.65265 20.7633 5.43591 20.717 5.43591 20.717L4.66144 22.3296Z" fill="#A39DC7"/>
<path id="Vector_7" d="M9.86922 15.975L9.34038 15.7236L8.57458 15.3595C8.57458 15.3595 6.28585 1.54327 6.08356 1.57795C5.87838 1.61262 6.80023 11.9842 6.80023 11.9842L7.65273 12.6315L7.75676 15.3595L6.28585 17.8852L5.65009 17.9603L5.91306 18.7377L6.39566 18.9111L8.23358 16.212C8.23358 16.212 8.45032 16.2987 8.81444 16.4461C9.05718 16.5472 9.37217 16.6715 9.73051 16.816C12.2042 17.8072 16.9262 19.6798 17.377 19.726C17.9896 19.7954 17.9231 19.5902 17.9231 19.5902L10.6466 15.8161L10.6235 15.8045L9.87211 15.975" fill="#A39DC7"/>
<path id="Vector_8" d="M36.0948 20.6825C37.4877 21.5407 39.525 22.2545 41.6693 22.2545C44.8481 22.2545 46.7062 20.5784 46.7062 18.1481C46.7062 15.8998 45.4174 14.611 42.1692 13.3626C38.2391 11.9697 35.8116 9.93235 35.8116 6.5397C35.8116 2.78872 38.9153 0.00292969 43.5968 0.00292969C46.0618 0.00292969 47.8477 0.575114 48.9198 1.18198L48.0644 3.71635C47.2784 3.28865 45.6717 2.57487 43.4899 2.57487C40.2041 2.57487 38.9528 4.53994 38.9528 6.18136C38.9528 8.42964 40.4151 9.53933 43.7384 10.8253C47.8101 12.3974 49.8821 14.3624 49.8821 17.8996C49.8821 21.613 47.131 24.8294 41.4525 24.8294C39.1291 24.8294 36.5919 24.1503 35.3088 23.292L36.0948 20.6825Z" fill="#2D327E"/>
<path id="Vector_9" d="M67.4199 12.7872H58.0626V21.4682H68.492V24.0748H54.9532V-0.000244141H67.9574V2.60637H58.0626V10.2153H67.4199V12.7872Z" fill="#2D327E"/>
<path id="Vector_10" d="M86.0283 12.7872H76.6711V21.4682H87.1004V24.0748H73.5645V-0.000244141H86.5658V2.60637H76.6711V10.2153H86.0283V12.7872Z" fill="#2D327E"/>
<path id="Vector_11" d="M92.1707 0.499695C94.0635 0.213603 96.3147 -0.000244141 98.7768 -0.000244141C103.242 -0.000244141 106.423 1.03431 108.53 2.99939C110.674 4.96446 111.925 7.75025 111.925 11.6457C111.925 15.5412 110.709 18.7894 108.458 21.0058C106.207 23.257 102.49 24.4707 97.8116 24.4707C95.598 24.4707 93.7398 24.3638 92.1678 24.1846V0.499695H92.1707ZM95.2743 21.789C96.0604 21.9306 97.2018 21.9682 98.4185 21.9682C105.065 21.9682 108.672 18.2518 108.672 11.7526C108.706 6.07126 105.49 2.46477 98.9184 2.46477C97.3117 2.46477 96.0979 2.60637 95.2743 2.78554V21.7919V21.789Z" fill="#2D327E"/>
<path id="Vector_12" d="M14.7505 29.9327C15.0395 30.1119 15.4585 30.2592 15.9036 30.2592C16.5624 30.2592 16.9468 29.9125 16.9468 29.4096C16.9468 28.9444 16.6809 28.6785 16.0076 28.4184C15.1955 28.1323 14.6927 27.7104 14.6927 27.0082C14.6927 26.2308 15.3343 25.6558 16.3052 25.6558C16.8138 25.6558 17.1837 25.7714 17.4063 25.8985L17.2271 26.4245C17.0653 26.3349 16.7329 26.1875 16.2792 26.1875C15.6001 26.1875 15.34 26.595 15.34 26.936C15.34 27.4012 15.6435 27.6295 16.3312 27.8954C17.1751 28.219 17.6057 28.6265 17.6057 29.3605C17.6057 30.1292 17.0364 30.7939 15.8602 30.7939C15.3805 30.7939 14.8545 30.6551 14.5887 30.476L14.7505 29.9356" fill="white"/>
<path id="Vector_13" d="M21.2347 28.2997H19.2957V30.0971H21.4543V30.6346H18.6541V25.6526H21.3445V26.193H19.2957V27.7679H21.2347V28.2997Z" fill="white"/>
<path id="Vector_14" d="M25.0838 28.2997H23.1476V30.0971H25.3063V30.6346H22.5032V25.6526H25.1965V26.193H23.1476V27.7679H25.0838V28.2997Z" fill="white"/>
<path id="Vector_15" d="M26.3559 25.7566C26.746 25.6988 27.2113 25.6526 27.7228 25.6526C28.6475 25.6526 29.3035 25.8664 29.7428 26.2739C30.1878 26.6814 30.445 27.2564 30.445 28.0627C30.445 28.869 30.1936 29.5423 29.7254 29.9989C29.2602 30.4641 28.4915 30.7184 27.5234 30.7184C27.0639 30.7184 26.6796 30.6953 26.3559 30.6606V25.7566ZM26.9974 30.1607C27.1593 30.1925 27.3962 30.1983 27.6476 30.1983C29.0232 30.1983 29.7688 29.4296 29.7688 28.0829C29.7746 26.9068 29.1099 26.1612 27.7517 26.1612C27.4193 26.1612 27.1679 26.1901 26.9974 26.2277V30.1607Z" fill="white"/>
<path id="Vector_16" d="M38.1694 30.0423H36.4008V31.6808H38.3717V32.1721H35.8142V27.6235H38.2706V28.1148H36.4008V29.5539H38.1694V30.0423Z" fill="#2D327E"/>
<path id="Vector_17" d="M39.4553 29.7904C39.4553 29.4523 39.4496 29.1749 39.4293 28.9062H39.9553L39.9899 29.4437H40.0044C40.1662 29.1316 40.5448 28.8281 41.0852 28.8281C41.536 28.8281 42.2382 29.0998 42.2382 30.221V32.1716H41.6458V30.2875C41.6458 29.7615 41.4493 29.3252 40.8916 29.3252C40.4986 29.3252 40.1951 29.5997 40.094 29.932L40.0535 30.2095V32.1716H39.4611V29.7904" fill="#2D327E"/>
<path id="Vector_18" d="M46.3562 28.9072C46.3417 29.1441 46.3273 29.4071 46.3273 29.8059V31.7045C46.3273 32.453 46.1799 32.9125 45.862 33.1957C45.5441 33.4933 45.0847 33.5887 44.6743 33.5887C44.2639 33.5887 43.8507 33.4962 43.5848 33.317L43.7351 32.8662C43.9518 33.002 44.2871 33.1205 44.6945 33.1205C45.3014 33.1205 45.7464 32.8026 45.7464 31.979V31.6149H45.732C45.5499 31.9184 45.2002 32.1611 44.6945 32.1611C43.8825 32.1611 43.3016 31.4733 43.3016 30.5659C43.3016 29.4591 44.0241 28.832 44.7726 28.832C45.3418 28.832 45.6511 29.1297 45.7927 29.3984H45.8071L45.8331 28.9072H46.3533H46.3562ZM45.7378 30.196L45.7031 29.9273C45.5962 29.5805 45.3043 29.3002 44.8737 29.3002C44.3073 29.3002 43.9027 29.7799 43.9027 30.537C43.9027 31.1786 44.2264 31.7132 44.8679 31.7132C45.232 31.7132 45.5644 31.482 45.6915 31.1063L45.7378 30.7884V30.2018V30.196Z" fill="#2D327E"/>
<path id="Vector_19" d="M48.2754 27.9883C48.2812 28.1906 48.1338 28.3524 47.8968 28.3524C47.6859 28.3524 47.5414 28.1906 47.5414 27.9883C47.5414 27.786 47.6974 27.6155 47.9113 27.6155C48.1251 27.6155 48.2754 27.7773 48.2754 27.9883ZM48.206 32.1727H47.6136V28.9072H48.206V32.1727Z" fill="#2D327E"/>
<path id="Vector_20" d="M49.532 29.7904C49.532 29.4523 49.5233 29.1749 49.506 28.9062H50.0319L50.0666 29.4437H50.0811C50.2429 29.1316 50.6186 28.8281 51.159 28.8281C51.6127 28.8281 52.312 29.0998 52.312 30.221V32.1716H51.7196V30.2875C51.7196 29.7615 51.5231 29.3252 50.9625 29.3252C50.5694 29.3252 50.266 29.5997 50.1649 29.932L50.1244 30.2095V32.1716H49.532V29.7904Z" fill="#2D327E"/>
<path id="Vector_21" d="M53.9529 30.6464C53.9645 31.4498 54.4788 31.7821 55.0713 31.7821C55.4961 31.7821 55.7561 31.7098 55.9758 31.6145L56.0769 32.0393C55.866 32.1346 55.5076 32.2445 54.9903 32.2445C53.9847 32.2445 53.3836 31.5827 53.3836 30.5973C53.3836 29.6118 53.9645 28.8345 54.9152 28.8345C55.9844 28.8345 56.2676 29.7737 56.2676 30.3747C56.2676 30.4961 56.2532 30.5915 56.2445 30.6493H53.95L53.9529 30.6464ZM55.6897 30.2245C55.6955 29.8459 55.5336 29.2593 54.869 29.2593C54.265 29.2593 54.002 29.8141 53.9558 30.2245H55.6897Z" fill="#2D327E"/>
<path id="Vector_22" d="M57.6721 30.6464C57.6865 31.4498 58.198 31.7821 58.7933 31.7821C59.2181 31.7821 59.4782 31.7098 59.6978 31.6145L59.799 32.0393C59.5909 32.1346 59.2326 32.2445 58.7124 32.2445C57.7068 32.2445 57.1028 31.5827 57.1028 30.5973C57.1028 29.6118 57.6836 28.8345 58.6373 28.8345C59.7036 28.8345 59.9868 29.7737 59.9868 30.3747C59.9868 30.4961 59.9753 30.5915 59.9666 30.6493H57.6721V30.6464ZM59.4146 30.2245C59.4233 29.8459 59.2615 29.2593 58.5939 29.2593C57.9928 29.2593 57.7299 29.8141 57.6807 30.2245H59.4146Z" fill="#2D327E"/>
<path id="Vector_23" d="M61.0626 29.9263C61.0626 29.539 61.0568 29.2096 61.0366 28.9062H61.5567L61.577 29.5448H61.603C61.7532 29.1084 62.1087 28.8281 62.5075 28.8281L62.6751 28.8484V29.409L62.4728 29.3859C62.0509 29.3859 61.7561 29.7037 61.6723 30.1488L61.6463 30.4262V32.1688H61.0597V29.9205" fill="#2D327E"/>
<path id="Vector_24" d="M64.2957 27.9883C64.3043 28.1906 64.1569 28.3524 63.92 28.3524C63.709 28.3524 63.5616 28.1906 63.5616 27.9883C63.5616 27.786 63.7148 27.6155 63.9315 27.6155C64.1483 27.6155 64.2957 27.7773 64.2957 27.9883ZM64.2292 32.1727H63.6339V28.9072H64.2292V32.1727Z" fill="#2D327E"/>
<path id="Vector_25" d="M65.557 29.7904C65.557 29.4523 65.5512 29.1749 65.5281 28.9062H66.0569L66.0916 29.4437H66.106C66.2679 29.1316 66.6435 28.8281 67.1839 28.8281C67.6376 28.8281 68.3399 29.0998 68.3399 30.221V32.1716H67.7475V30.2875C67.7475 29.7615 67.5509 29.3252 66.9903 29.3252C66.5973 29.3252 66.2939 29.5997 66.1927 29.932L66.1523 30.2095V32.1716H65.557V29.7904Z" fill="#2D327E"/>
<path id="Vector_26" d="M72.4571 28.9072C72.4456 29.1441 72.434 29.4071 72.434 29.8059V31.7045C72.434 32.453 72.2838 32.9125 71.9659 33.1957C71.6509 33.4933 71.1914 33.5887 70.781 33.5887C70.3707 33.5887 69.9575 33.4962 69.6916 33.317L69.839 32.8662C70.0557 33.002 70.3909 33.1205 70.7984 33.1205C71.4081 33.1205 71.8532 32.8026 71.8532 31.979V31.6149H71.8387C71.6567 31.9184 71.3041 32.1611 70.7984 32.1611C69.9892 32.1611 69.4084 31.4733 69.4084 30.5659C69.4084 29.4591 70.1308 28.832 70.8822 28.832C71.4486 28.832 71.7607 29.1297 71.8994 29.3984H71.911L71.9399 28.9072H72.4571ZM71.8445 30.196L71.8127 29.9273C71.7029 29.5805 71.4139 29.3002 70.9804 29.3002C70.4112 29.3002 70.0095 29.7799 70.0095 30.537C70.0095 31.1786 70.3331 31.7132 70.9747 31.7132C71.3388 31.7132 71.6711 31.482 71.7983 31.1063L71.8445 30.7884V30.2018V30.196Z" fill="#2D327E"/>
<path id="Vector_27" d="M78.725 32.0249C78.5082 32.1318 78.0748 32.2417 77.5228 32.2417C76.2397 32.2417 75.2745 31.4325 75.2745 29.9385C75.2745 28.4444 76.2397 27.5486 77.65 27.5486C78.2193 27.5486 78.5747 27.67 78.7308 27.7509L78.5892 28.2306C78.3666 28.1237 78.0488 28.0427 77.6702 28.0427C76.6038 28.0427 75.8958 28.7247 75.8958 29.9182C75.8958 31.0308 76.5374 31.7475 77.6442 31.7475C77.9996 31.7475 78.3637 31.6724 78.6007 31.5597L78.7221 32.0249" fill="#2D327E"/>
<path id="Vector_28" d="M82.6641 30.51C82.6641 31.7179 81.826 32.2439 81.0371 32.2439C80.1528 32.2439 79.4708 31.5966 79.4708 30.562C79.4708 29.4697 80.1875 28.8281 81.092 28.8281C81.9965 28.8281 82.667 29.5101 82.667 30.51H82.6641ZM80.0748 30.5447C80.0748 31.2614 80.4851 31.8018 81.066 31.8018C81.6469 31.8018 82.0601 31.2671 82.0601 30.5331C82.0601 29.9783 81.7827 29.276 81.0805 29.276C80.3782 29.276 80.0748 29.9263 80.0748 30.5447Z" fill="#2D327E"/>
<path id="Vector_29" d="M83.7535 29.7904C83.7535 29.4523 83.7477 29.1749 83.7275 28.9062H84.2534L84.2852 29.4437H84.2997C84.4586 29.1316 84.8401 28.8281 85.3805 28.8281C85.8313 28.8281 86.5335 29.0998 86.5335 30.221V32.1716H85.9411V30.2875C85.9411 29.7615 85.7475 29.3252 85.1868 29.3252C84.7938 29.3252 84.4904 29.5997 84.3892 29.932L84.3488 30.2095V32.1716H83.7535V29.7904Z" fill="#2D327E"/>
<path id="Vector_30" d="M87.758 31.5658C87.9343 31.6785 88.2464 31.8028 88.5411 31.8028C88.9746 31.8028 89.1769 31.586 89.1769 31.3144C89.1769 31.0427 89.0064 30.8751 88.57 30.7162C87.9805 30.5081 87.706 30.1816 87.706 29.7914C87.706 29.2626 88.1308 28.832 88.833 28.832C89.1653 28.832 89.4543 28.9274 89.6364 29.0372L89.489 29.4707C89.359 29.3898 89.1249 29.28 88.8186 29.28C88.466 29.28 88.2695 29.4822 88.2695 29.725C88.2695 29.9966 88.466 30.1151 88.8908 30.2798C89.4572 30.4966 89.7491 30.7798 89.7491 31.2653C89.7491 31.8403 89.304 32.2449 88.5267 32.2449C88.1712 32.2449 87.8389 32.1553 87.6077 32.0224L87.7551 31.5687" fill="#2D327E"/>
<path id="Vector_31" d="M93.5873 31.2826C93.5873 31.6207 93.5931 31.9183 93.6133 32.1726H93.0874L93.0527 31.638H93.0412C92.8822 31.901 92.5383 32.2449 91.9604 32.2449C91.4431 32.2449 90.8304 31.9617 90.8304 30.8144V28.9043H91.4229V30.7133C91.4229 31.3346 91.6136 31.7507 92.154 31.7507C92.5499 31.7507 92.8273 31.4733 92.9371 31.2103L92.992 30.9069V28.9014H93.5844V31.2768" fill="#2D327E"/>
<path id="Vector_32" d="M95.506 27.3782H94.9136V32.1724H95.506V27.3782Z" fill="#2D327E"/>
<path id="Vector_33" d="M97.5608 27.9646V28.9038H98.4104V29.3575H97.5608V31.1203C97.5608 31.5249 97.6764 31.7532 98.0087 31.7532C98.1619 31.7532 98.2775 31.7329 98.3526 31.7127L98.3757 32.1577C98.263 32.204 98.0781 32.2386 97.8498 32.2386C97.5724 32.2386 97.3499 32.1491 97.2083 31.9872C97.0407 31.8138 96.98 31.522 96.98 31.1376V29.3575H96.4742V28.9038H96.98V28.1206L97.5608 27.9646Z" fill="#2D327E"/>
<path id="Vector_34" d="M101.228 32.1727L101.181 31.7623H101.161C100.979 32.0195 100.627 32.2478 100.161 32.2478C99.4996 32.2478 99.1614 31.7825 99.1614 31.3115C99.1614 30.5197 99.8637 30.0891 101.124 30.0978V30.0284C101.124 29.7568 101.048 29.2713 100.384 29.2713C100.078 29.2713 99.7625 29.3638 99.5313 29.514L99.3955 29.121C99.6672 28.9476 100.057 28.832 100.468 28.832C101.468 28.832 101.71 29.514 101.71 30.17V31.3924C101.71 31.6756 101.722 31.953 101.765 32.1755H101.225L101.228 32.1727ZM101.135 30.511C100.488 30.4966 99.751 30.6122 99.751 31.245C99.751 31.6323 100.008 31.8143 100.312 31.8143C100.736 31.8143 101.008 31.5456 101.103 31.2681L101.135 31.0803V30.5139V30.511Z" fill="#2D327E"/>
<path id="Vector_35" d="M103.013 29.7904C103.013 29.4523 103.008 29.1749 102.987 28.9062H103.516L103.548 29.4437H103.562C103.724 29.1316 104.103 28.8281 104.643 28.8281C105.094 28.8281 105.796 29.0998 105.796 30.221V32.1716H105.204V30.2875C105.204 29.7615 105.007 29.3252 104.45 29.3252C104.057 29.3252 103.753 29.5997 103.652 29.932L103.615 30.2095V32.1716H103.019V29.7904" fill="#2D327E"/>
<path id="Vector_36" d="M107.788 27.9646V28.9038H108.637V29.3575H107.788V31.1203C107.788 31.5249 107.901 31.7532 108.236 31.7532C108.386 31.7532 108.505 31.7329 108.577 31.7127L108.603 32.1577C108.49 32.204 108.305 32.2386 108.077 32.2386C107.799 32.2386 107.577 32.1491 107.435 31.9872C107.268 31.8138 107.207 31.522 107.207 31.1376V29.3575H106.701V28.9038H107.207V28.1206L107.788 27.9646Z" fill="#2D327E"/>
<path id="Vector_37" d="M109.564 31.5658C109.74 31.6785 110.05 31.8028 110.347 31.8028C110.781 31.8028 110.983 31.586 110.983 31.3144C110.983 31.0427 110.815 30.8751 110.376 30.7162C109.787 30.5081 109.512 30.1816 109.512 29.7914C109.512 29.2626 109.937 28.832 110.639 28.832C110.969 28.832 111.26 28.9274 111.442 29.0372L111.295 29.4707C111.168 29.3898 110.931 29.28 110.628 29.28C110.278 29.28 110.079 29.4822 110.079 29.725C110.079 29.9966 110.275 30.1151 110.7 30.2798C111.266 30.4966 111.558 30.7798 111.558 31.2653C111.558 31.8403 111.113 32.2449 110.336 32.2449C109.98 32.2449 109.648 32.1553 109.42 32.0224L109.567 31.5687" fill="#2D327E"/>
</g>
</g>
</g>
</g>
</svg>
