<svg width="51" height="42" viewBox="0 0 51 42" fill="none" xmlns="http://www.w3.org/2000/svg">
<path id="Vector" fill-rule="evenodd" clip-rule="evenodd" d="M8.68303 25.5608V41.2783C8.68079 41.4691 8.60173 41.6514 8.46277 41.7862C8.32381 41.9211 8.13598 41.9978 7.93947 42H1.5587C1.36219 41.9978 1.17437 41.9211 1.03541 41.7862C0.896449 41.6514 0.817388 41.4691 0.815142 41.2783V25.5608H8.68303ZM0.797852 20.4252L17.7181 6.05874C21.4446 9.61679 25.0932 13.9217 28.7937 17.4797L42.3074 4.3049L37.9844 0.109092L50.7979 0V12.5874L46.5959 8.45874C43.5957 11.4042 36.5146 17.8993 33.549 20.7944C29.7621 24.4699 27.955 24.5371 24.1594 20.8615L17.7614 13.9385L10.2047 20.4252H0.797852ZM47.3135 16.5986V41.2783C47.3113 41.4691 47.2322 41.6514 47.0932 41.7862C46.9543 41.9211 46.7664 41.9978 46.5699 42H40.1632C39.9675 41.9978 39.7806 41.9208 39.643 41.7857C39.5055 41.6506 39.4283 41.4683 39.4283 41.2783V22.5734L43.5179 18.7385L46.5181 15.9021C46.7517 16.1444 47.0095 16.3636 47.2876 16.5566L47.3135 16.5986ZM34.4136 26.9371V41.2783C34.4136 41.4683 34.3365 41.6506 34.1989 41.7857C34.0613 41.9208 33.8744 41.9978 33.6787 42H27.2893C27.0936 41.9978 26.9067 41.9208 26.7691 41.7857C26.6315 41.6506 26.5544 41.4683 26.5544 41.2783V28.4727C27.9015 28.7746 29.2995 28.7938 30.6549 28.5289C32.0103 28.2641 33.2918 27.7214 34.4136 26.9371ZM21.557 25.7706V41.2783C21.557 41.4697 21.4786 41.6533 21.3392 41.7886C21.1997 41.924 21.0106 42 20.8134 42H14.4153C14.2188 41.9978 14.031 41.9211 13.8921 41.7862C13.7531 41.6514 13.674 41.4691 13.6718 41.2783V24.4951C13.8045 24.4016 13.9315 24.3007 14.0522 24.193L17.2513 21.4406L19.8451 24.2266L20.0439 24.428C20.5627 24.9315 21.0728 25.393 21.5743 25.8126L21.557 25.7706Z" fill="#DC0000"/>
</svg>
