<svg width="51" height="42" viewBox="0 0 51 42" fill="none" xmlns="http://www.w3.org/2000/svg">
<path id="Vector" fill-rule="evenodd" clip-rule="evenodd" d="M1.38624 0H49.6138C49.9811 0.00108726 50.333 0.146475 50.5928 0.404411C50.8525 0.662346 50.9989 1.01187 51 1.37664V33.1136C50.9989 33.4784 50.8525 33.8279 50.5928 34.0859C50.333 34.3438 49.9811 34.4892 49.6138 34.4903H1.38624C1.20365 34.4897 1.02296 34.4535 0.854476 34.3836C0.685995 34.3137 0.533026 34.2116 0.404303 34.083C0.275579 33.9544 0.173622 33.8018 0.104253 33.6341C0.0348834 33.4664 -0.000539638 33.2867 6.21363e-06 33.1054V1.3684C0.00328123 1.00506 0.150643 0.657643 0.41014 0.401483C0.669637 0.145324 1.02035 0.00107009 1.38624 0ZM5.59888 26.3417C5.45238 26.3508 5.30556 26.3299 5.16747 26.2805C5.02939 26.231 4.90297 26.154 4.796 26.0542C4.68903 25.9544 4.60378 25.8338 4.54551 25.7C4.48723 25.5663 4.45717 25.422 4.45717 25.2763C4.45717 25.1305 4.48723 24.9863 4.54551 24.8525C4.60378 24.7187 4.68903 24.5981 4.796 24.4983C4.90297 24.3985 5.02939 24.3215 5.16747 24.272C5.30556 24.2226 5.45238 24.2017 5.59888 24.2108H21.9722C22.1187 24.2017 22.2655 24.2226 22.4036 24.272C22.5417 24.3215 22.6681 24.3985 22.7751 24.4983C22.882 24.5981 22.9673 24.7187 23.0255 24.8525C23.0838 24.9863 23.1139 25.1305 23.1139 25.2763C23.1139 25.422 23.0838 25.5663 23.0255 25.7C22.9673 25.8338 22.882 25.9544 22.7751 26.0542C22.6681 26.154 22.5417 26.231 22.4036 26.2805C22.2655 26.3299 22.1187 26.3508 21.9722 26.3417H5.59888ZM5.66114 20.8681C5.38813 20.8512 5.13187 20.7316 4.94455 20.5337C4.75723 20.3357 4.65295 20.0743 4.65295 19.8026C4.65295 19.531 4.75723 19.2696 4.94455 19.0716C5.13187 18.8737 5.38813 18.7541 5.66114 18.7372H17.5977C17.8707 18.7541 18.1269 18.8737 18.3143 19.0716C18.5016 19.2696 18.6059 19.531 18.6059 19.8026C18.6059 20.0743 18.5016 20.3357 18.3143 20.5337C18.1269 20.7316 17.8707 20.8512 17.5977 20.8681H5.66114ZM5.59888 15.4151C5.45238 15.4242 5.30556 15.4033 5.16747 15.3539C5.02939 15.3044 4.90297 15.2274 4.796 15.1276C4.68903 15.0278 4.60378 14.9072 4.54551 14.7735C4.48723 14.6397 4.45717 14.4954 4.45717 14.3497C4.45717 14.2039 4.48723 14.0597 4.54551 13.9259C4.60378 13.7921 4.68903 13.6715 4.796 13.5717C4.90297 13.4719 5.02939 13.3949 5.16747 13.3454C5.30556 13.296 5.45238 13.2751 5.59888 13.2842H14.0491C14.3221 13.3011 14.5784 13.4207 14.7657 13.6186C14.953 13.8166 15.0573 14.078 15.0573 14.3497C15.0573 14.6213 14.953 14.8827 14.7657 15.0807C14.5784 15.2786 14.3221 15.3982 14.0491 15.4151H5.59888ZM5.59888 9.94975C5.45238 9.95881 5.30556 9.93797 5.16747 9.88852C5.02939 9.83907 4.90297 9.76206 4.796 9.66223C4.68903 9.56241 4.60378 9.44189 4.54551 9.30809C4.48723 9.1743 4.45717 9.03007 4.45717 8.8843C4.45717 8.73853 4.48723 8.5943 4.54551 8.4605C4.60378 8.32671 4.68903 8.20619 4.796 8.10636C4.90297 8.00654 5.02939 7.92953 5.16747 7.88008C5.30556 7.83063 5.45238 7.80979 5.59888 7.81884H10.5005C10.7735 7.83571 11.0298 7.95531 11.2171 8.15327C11.4044 8.35122 11.5087 8.61265 11.5087 8.8843C11.5087 9.15594 11.4044 9.41737 11.2171 9.61533C11.0298 9.81329 10.7735 9.93288 10.5005 9.94975H5.59888ZM45.8577 20.7445V23.3988L40.3667 26.4901V23.3988L43.9028 22.0634L40.3667 20.7445V17.6532L45.8577 20.7445ZM36.345 27.3392H34.0332L36.9385 16.1653H39.2752L36.3699 27.3392H36.345ZM32.4395 20.7445L28.8992 22.0634L32.4395 23.3988V26.4901L26.9775 23.3988V20.7445L32.4727 17.6532V20.7445H32.4395ZM34.7927 4.80177V6.31443C34.7927 6.51447 34.7127 6.70632 34.5703 6.84777C34.4278 6.98923 34.2346 7.06869 34.0332 7.06869H32.7881C32.6326 7.57685 32.4092 8.06202 32.124 8.51129L32.9541 9.33562C33.0955 9.47694 33.1749 9.66808 33.1749 9.86732C33.1749 10.0666 33.0955 10.2577 32.9541 10.399L31.8294 11.516C31.687 11.6564 31.4946 11.7353 31.2939 11.7353C31.0933 11.7353 30.9009 11.6564 30.7585 11.516L29.8538 10.6175C29.3829 10.8683 28.8804 11.0554 28.3596 11.1739V12.3362C28.3585 12.5359 28.2782 12.7271 28.136 12.8684C27.9938 13.0096 27.8012 13.0894 27.6001 13.0905H25.9939C25.7928 13.0894 25.6002 13.0096 25.458 12.8684C25.3158 12.7271 25.2355 12.5359 25.2344 12.3362V11.0667C24.7225 10.9147 24.2338 10.6942 23.7817 10.4114L22.9517 11.2357C22.8814 11.3064 22.7977 11.3625 22.7055 11.4008C22.6132 11.4391 22.5142 11.4588 22.4142 11.4588C22.3142 11.4588 22.2152 11.4391 22.1229 11.4008C22.0307 11.3625 21.947 11.3064 21.8767 11.2357L20.752 10.1187C20.6152 9.97748 20.5389 9.78916 20.5389 9.59323C20.5389 9.3973 20.6152 9.20898 20.752 9.06771L21.6567 8.17331C21.4041 7.7043 21.2157 7.2039 21.0964 6.68538H19.9219C19.7204 6.68538 19.5273 6.60591 19.3848 6.46446C19.2424 6.32301 19.1624 6.13115 19.1624 5.93111V4.81825H1.28248V29.198C1.28248 29.526 1.41366 29.8405 1.64716 30.0724C1.88067 30.3043 2.19737 30.4345 2.52759 30.4345H48.4973C48.8275 30.4345 49.1442 30.3043 49.3777 30.0724C49.6113 29.8405 49.7424 29.526 49.7424 29.198V4.80177H34.7927ZM30.053 4.80177H23.9146C23.8846 4.97606 23.8693 5.15253 23.8689 5.32934C23.9264 6.1102 24.2793 6.84052 24.8567 7.37359C25.4341 7.90665 26.1933 8.20295 26.9817 8.20295C27.7701 8.20295 28.5293 7.90665 29.1067 7.37359C29.6841 6.84052 30.037 6.1102 30.0945 5.32934C30.0954 5.15264 30.0816 4.97617 30.053 4.80177ZM47.3975 2.02787C47.5616 2.02787 47.7221 2.07622 47.8586 2.1668C47.9951 2.25738 48.1015 2.38612 48.1644 2.53675C48.2272 2.68738 48.2436 2.85312 48.2116 3.01303C48.1796 3.17293 48.1005 3.31982 47.9844 3.4351C47.8683 3.55039 47.7204 3.6289 47.5594 3.66071C47.3984 3.69251 47.2315 3.67619 47.0798 3.6138C46.9281 3.5514 46.7985 3.44575 46.7073 3.31019C46.6161 3.17462 46.5674 3.01525 46.5674 2.85221C46.5674 2.63358 46.6548 2.42391 46.8105 2.26931C46.9662 2.11472 47.1773 2.02787 47.3975 2.02787ZM41.8193 2.02787C41.9835 2.02787 42.144 2.07622 42.2805 2.1668C42.417 2.25738 42.5234 2.38612 42.5862 2.53675C42.6491 2.68738 42.6655 2.85312 42.6335 3.01303C42.6014 3.17293 42.5224 3.31982 42.4063 3.4351C42.2902 3.55039 42.1423 3.6289 41.9813 3.66071C41.8203 3.69251 41.6534 3.67619 41.5017 3.6138C41.35 3.5514 41.2204 3.44575 41.1292 3.31019C41.0379 3.17462 40.9893 3.01525 40.9893 2.85221C40.9893 2.63358 41.0767 2.42391 41.2324 2.26931C41.3881 2.11472 41.5992 2.02787 41.8193 2.02787ZM44.6084 2.02787C44.7726 2.02787 44.9331 2.07622 45.0696 2.1668C45.2061 2.25738 45.3125 2.38612 45.3753 2.53675C45.4381 2.68738 45.4546 2.85312 45.4225 3.01303C45.3905 3.17293 45.3114 3.31982 45.1954 3.4351C45.0793 3.55039 44.9314 3.6289 44.7703 3.66071C44.6093 3.69251 44.4424 3.67619 44.2907 3.6138C44.1391 3.5514 44.0094 3.44575 43.9182 3.31019C43.827 3.17462 43.7783 3.01525 43.7783 2.85221C43.7783 2.63358 43.8658 2.42391 44.0215 2.26931C44.1771 2.11472 44.3883 2.02787 44.6084 2.02787ZM19.2122 36.3821H31.7878C31.821 38.5419 32.7175 40.4791 35.1455 42H15.8545C17.8093 40.5945 19.2205 38.8922 19.2122 36.3821Z" fill="#DC0000"/>
</svg>
