<svg width="52" height="45" viewBox="0 0 52 45" fill="none" xmlns="http://www.w3.org/2000/svg">
<g id="Group 5424">
<path id="Vector" fill-rule="evenodd" clip-rule="evenodd" d="M9.34684 7.30599H31.3124C31.0193 8.13903 30.8316 9.00726 30.7537 9.90679L28.597 9.90288L30.7995 17.7209H33.2447C33.8308 18.4445 34.5085 19.1093 35.2595 19.7077H31.3627L33.231 26.3525L38.6159 25.7267L37.3063 21.0648C38.4007 21.6593 39.5958 22.1325 40.8642 22.4571L41.6838 25.3669L42.073 25.32C44.5045 25.0227 44.3396 25.4959 44.532 23.5405L44.5869 22.9616C44.7105 22.9655 44.8387 22.9655 44.967 22.9655C45.8828 22.9655 46.7757 22.8912 47.6411 22.7504L47.3984 25.4177C47.1603 27.8269 47.3618 27.2442 44.3717 27.6079L16.9159 30.592L18.3675 34.194C30.2775 34.194 36.0379 34.194 47.9433 34.194C48.3463 35.4729 48.8866 37.5535 49.2896 38.981H44.3671L43.8955 37.5222C33.9728 37.5222 30.1905 37.5222 20.2632 37.5222C14.8416 37.444 15.3865 38.6955 14.0861 34.6985L4.76325 5.77288H0.289551V3H8.1334C8.49972 4.16547 9.00799 6.12878 9.34684 7.30599ZM21.7743 38.5195C23.8669 38.5195 25.5657 39.9705 25.5657 41.7617C25.5657 43.5529 23.8669 45 21.7743 45C19.6771 45 17.9783 43.549 17.9783 41.7617C17.9783 39.9705 19.6771 38.5195 21.7743 38.5195ZM37.4207 38.5195C39.5134 38.5195 41.2122 39.9705 41.2122 41.7617C41.2122 43.5529 39.5134 45 37.4207 45C35.3236 45 33.6248 43.549 33.6248 41.7617C33.6248 39.9705 35.3236 38.5195 37.4207 38.5195ZM12.6162 17.7209H18.656L16.4626 9.89114C14.3059 9.89114 12.1721 9.88723 10.0886 9.88723L10.8259 12.2299L10.8488 12.226L12.6162 17.7209ZM19.6221 9.89506L21.8155 17.7209H27.6354L25.4329 9.89897L19.6221 9.89506ZM30.163 26.7123L28.194 19.7116H22.3741L24.5217 27.3732L30.163 26.7123ZM21.4537 27.7252L19.21 19.7077H13.2573L16.0413 28.3549L21.4537 27.7252Z" fill="#DC0000"/>
<path id="Vector_2" d="M49.5978 14.982C49.6265 14.982 49.6544 14.9849 49.6818 14.9903C49.8623 14.6756 50.0268 14.3454 50.1755 14.0003C50.1784 13.9934 50.1814 13.9867 50.1848 13.9801C50.4081 13.4533 50.5767 12.9062 50.6902 12.3392C50.7783 11.8993 50.8326 11.4482 50.8532 10.9861H48.1926C48.1443 12.3365 47.7411 13.6683 46.9895 14.982H49.5978ZM49.134 15.8302H46.4543C45.641 17.0085 44.5453 18.1722 43.1724 19.3214C43.3877 19.2947 43.6007 19.2603 43.8111 19.2183C44.3853 19.1035 44.9394 18.9321 45.4725 18.7042L45.4722 18.7036C46.0141 18.4705 46.5189 18.1977 46.9856 17.8848C47.4532 17.571 47.8866 17.2146 48.2849 16.8146L48.2865 16.813C48.5947 16.506 48.8771 16.1783 49.134 15.8302ZM40.8953 19.3213C39.5226 18.1722 38.4269 17.0085 37.6134 15.8302H34.9342C35.1911 16.1783 35.4733 16.506 35.7814 16.813L35.783 16.8147C36.1814 17.2148 36.6149 17.571 37.0823 17.8848C37.5488 18.1977 38.0536 18.4705 38.5957 18.7036C38.6025 18.7066 38.6093 18.7096 38.6159 18.7129C39.1427 18.9364 39.6899 19.1047 40.257 19.2183C40.4674 19.2603 40.68 19.2947 40.8953 19.3213ZM34.3816 14.982H37.0782C36.3268 13.6683 35.9235 12.3365 35.8754 10.9861H33.215C33.2355 11.4482 33.2898 11.8991 33.3778 12.339C33.4927 12.9133 33.6642 13.4673 33.8919 14.0004L33.8925 14.0003C34.0398 14.3424 34.2027 14.6698 34.3816 14.982ZM33.215 10.138H35.892C35.9904 8.81506 36.4293 7.48311 37.216 6.1422H34.3816C34.2027 6.45435 34.0398 6.78179 33.8925 7.12402C33.8896 7.1308 33.8864 7.13757 33.8833 7.14403C33.6598 7.67101 33.4914 8.21815 33.3778 8.78513C33.2898 9.22502 33.2355 9.67608 33.215 10.138ZM34.9342 5.29408H37.7594C38.5639 4.13476 39.6276 2.96866 40.955 1.79579C40.7194 1.82335 40.4868 1.86005 40.2572 1.90603C39.6828 2.02085 39.1288 2.19236 38.5957 2.4201L38.5959 2.42057C38.0538 2.65382 37.549 2.92645 37.0825 3.23955C36.615 3.55328 36.1816 3.90969 35.7831 4.30958L35.7814 4.31115C35.4733 4.61827 35.1911 4.94586 34.9342 5.29408ZM43.1127 1.79563C44.4401 2.9685 45.5039 4.1346 46.3085 5.29392H49.1338C48.877 4.94586 48.5946 4.61811 48.2864 4.31115L48.2848 4.30958C47.8865 3.90954 47.453 3.55328 46.9854 3.23955C46.5188 2.92645 46.014 2.65382 45.472 2.42057C45.4653 2.41774 45.4585 2.41459 45.452 2.41128C44.925 2.18795 44.3779 2.01943 43.8109 1.90603C43.5813 1.86005 43.3483 1.82335 43.1127 1.79563ZM49.6863 6.1422H46.8517C47.6386 7.48311 48.0775 8.81506 48.1759 10.138H50.8531C50.8324 9.67593 50.778 9.22502 50.6901 8.78513C50.5751 8.2109 50.4037 7.65683 50.176 7.12371L50.1754 7.12402C50.0281 6.78179 49.8654 6.45435 49.6863 6.1422ZM40.0915 1.0743C40.7202 0.948461 41.3678 0.88562 42.034 0.88562C42.7002 0.88562 43.3477 0.948461 43.9764 1.0743C44.596 1.19841 45.1983 1.38457 45.7834 1.63294C45.7914 1.63577 45.7992 1.63876 45.8067 1.64207C46.3899 1.89312 46.9402 2.19094 47.4559 2.53728C47.9706 2.88251 48.4467 3.27388 48.8837 3.71251C49.3224 4.14956 49.7137 4.62583 50.0588 5.14021C50.4048 5.65601 50.703 6.20614 50.954 6.78966L50.9534 6.78982L50.954 6.79124C51.2071 7.38311 51.3964 7.99261 51.5218 8.6196C51.6477 9.24833 51.7103 9.89595 51.7103 10.5622C51.7103 11.2284 51.6477 11.8761 51.5218 12.5049C51.3979 13.1241 51.2114 13.7267 50.9632 14.3117C50.9603 14.3195 50.9573 14.3272 50.9539 14.3348C50.7028 14.9183 50.4048 15.4683 50.0587 15.9841C49.7136 16.4986 49.3222 16.9748 48.8836 17.4118C48.4465 17.8504 47.9703 18.242 47.4557 18.587C46.9402 18.9332 46.3898 19.2313 45.8066 19.4822L45.8062 19.4816L45.8047 19.4822C45.2128 19.7352 44.6031 19.9245 43.9763 20.0499C43.3476 20.1757 42.6999 20.2385 42.0339 20.2385C41.3678 20.2385 40.72 20.1757 40.0913 20.0499C39.4719 19.9259 38.8694 19.7396 38.2842 19.4914C38.2765 19.4884 38.2688 19.4855 38.261 19.4821C37.6775 19.2312 37.1275 18.9332 36.6117 18.5869C36.0973 18.2418 35.6211 17.8503 35.184 17.4116C34.7454 16.9746 34.354 16.4983 34.0089 15.9839C33.6628 15.4683 33.3648 14.9182 33.1137 14.3346L33.1144 14.3343L33.1137 14.3329C32.8608 13.741 32.6715 13.1315 32.5461 12.5045C32.4204 11.876 32.3574 11.2284 32.3574 10.562C32.3574 9.89595 32.4204 9.24817 32.5463 8.61945C32.6702 8.00002 32.8565 7.39759 33.1047 6.8125C33.1076 6.80478 33.1106 6.79691 33.1139 6.78935C33.3649 6.20582 33.6628 5.65569 34.0091 5.13989C34.3543 4.62551 34.7457 4.14925 35.1842 3.7122C35.6212 3.27357 36.0975 2.88219 36.6119 2.53696C37.1277 2.19079 37.6778 1.89281 38.2612 1.64176L38.2614 1.64239L38.2628 1.64176C38.8548 1.38913 39.4645 1.19982 40.0915 1.0743ZM42.4582 2.34529V5.29408H45.2657C44.528 4.32139 43.5933 3.33862 42.4582 2.34529ZM42.4582 6.1422V10.138H47.3283C47.2182 8.82577 46.7315 7.49398 45.8607 6.1422H42.4582ZM42.4582 10.9861V14.982H46.0034C46.8426 13.6596 47.2932 12.3275 47.347 10.9861H42.4582ZM42.4582 15.8302V18.8151C43.6622 17.8255 44.6477 16.8305 45.4106 15.8302H42.4582ZM41.6099 18.8154V15.8302H38.6573C39.4201 16.8305 40.4055 17.8257 41.6099 18.8154ZM41.6099 14.982V10.9861H36.721C36.7747 12.3277 37.2252 13.6596 38.0646 14.982H41.6099ZM41.6099 10.138V6.1422H38.2073C37.3365 7.49398 36.8499 8.82592 36.7396 10.138H41.6099ZM41.6099 5.29408V2.34498C40.4748 3.3383 39.5399 4.32139 38.8022 5.29408H41.6099Z" fill="#DC0000"/>
</g>
</svg>
