<svg width="16" height="16" viewBox="0 0 16 16" fill="none" xmlns="http://www.w3.org/2000/svg">
<g id="Group 5450">
<circle id="Ellipse 493" cx="8" cy="8" r="8" fill="white"/>
<path id="Vector" fill-rule="evenodd" clip-rule="evenodd" d="M2.44824 11.1717C3.57459 11.2259 4.58327 10.9647 5.52084 10.3123C4.54097 10.2182 3.89284 9.77292 3.53099 8.91389C3.85349 8.91389 4.14219 8.91389 4.43107 8.91389C3.41666 8.57494 2.85349 7.93831 2.77739 6.92785C3.0877 7.00883 3.37953 7.08515 3.671 7.16147C3.68116 7.14593 3.69114 7.13022 3.70129 7.11451C3.13665 6.70752 2.82652 6.1776 2.80048 5.51386C2.78607 5.14625 2.90909 4.73668 3.10247 4.49028C4.25264 5.74127 5.70001 6.44144 7.49037 6.55937C7.47744 6.46199 7.46544 6.38273 7.45713 6.30331C7.37235 5.48744 7.8367 4.69075 8.60859 4.32555C9.4117 3.94568 10.3629 4.05843 11.0238 4.62392C11.1287 4.71389 11.2202 4.7334 11.3459 4.69282C11.5382 4.631 11.7362 4.58456 11.9254 4.51583C12.1079 4.44987 12.2826 4.36371 12.4607 4.28636C12.4462 4.5407 12.2597 4.78192 11.6662 5.36243C12.0227 5.27195 12.3786 5.18182 12.7586 5.08564C12.6908 5.17422 12.631 5.25814 12.5641 5.33653C12.4926 5.4201 12.418 5.50143 12.3378 5.57809C12.2405 5.67168 12.1492 5.77856 12.0323 5.8459C11.7833 5.98991 11.7276 6.18296 11.7235 6.45094C11.6943 8.68597 10.1012 11.2327 7.11874 11.8728C5.50754 12.2183 3.97263 12.0135 2.53709 11.2289C2.50624 11.2119 2.4778 11.1907 2.44824 11.1717Z" fill="#0E76BC"/>
</g>
</svg>
