<svg width="12" height="10" viewBox="0 0 12 10" fill="none" xmlns="http://www.w3.org/2000/svg">
<path id="Vector" fill-rule="evenodd" clip-rule="evenodd" d="M0.189453 8.58012C1.46726 8.64594 2.61159 8.32881 3.67524 7.53692C2.56361 7.42269 1.82831 6.88212 1.41781 5.83934C1.78368 5.83934 2.1112 5.83934 2.43893 5.83934C1.2881 5.42789 0.649196 4.65508 0.562863 3.42847C0.9149 3.52678 1.24598 3.61942 1.57665 3.71207C1.58817 3.6932 1.59949 3.67413 1.61101 3.65506C0.97043 3.16102 0.618603 2.51774 0.589057 1.71203C0.572712 1.26578 0.712269 0.768598 0.931664 0.469493C2.2365 1.98807 3.8785 2.83802 5.90963 2.98118C5.89496 2.86296 5.88134 2.76675 5.87191 2.67034C5.77573 1.67996 6.30253 0.712843 7.17822 0.269531C8.08932 -0.191598 9.16848 -0.0547265 9.91824 0.631727C10.0373 0.740931 10.141 0.764616 10.2837 0.715359C10.5018 0.640321 10.7265 0.583937 10.941 0.500515C11.1481 0.420446 11.3463 0.315854 11.5483 0.221951C11.5319 0.530698 11.3203 0.823515 10.647 1.5282C11.0515 1.41837 11.4553 1.30896 11.8863 1.19221C11.8094 1.29974 11.7415 1.4016 11.6656 1.49676C11.5845 1.59821 11.4999 1.69694 11.4089 1.79C11.2985 1.9036 11.195 2.03335 11.0624 2.11509C10.7799 2.2899 10.7166 2.52424 10.712 2.84955C10.6789 5.56266 8.87156 8.65411 5.48802 9.43112C3.66016 9.85053 1.91883 9.60194 0.290244 8.6495C0.25525 8.62896 0.22298 8.60318 0.189453 8.58012Z" fill="white"/>
</svg>
